<svg width="300" height="300" viewBox="0 0 300 300" fill="none" xmlns="http://www.w3.org/2000/svg">
<path d="M150 0C180.069 3.58565e-07 209.443 9.03683 234.313 25.9379L213.234 56.9535C194.583 44.2776 172.551 37.5 150 37.5V0Z" fill="#A03484"/>
<path d="M238.182 28.6581C262.506 46.335 280.956 70.9141 291.138 99.2063L255.854 111.905C248.217 90.6856 234.38 72.2512 216.137 58.9936L238.182 28.6581Z" fill="#A03484"/>
<path d="M292.438 102.975C301.865 131.528 302.492 162.255 294.24 191.169L258.18 180.877C264.369 159.191 263.899 136.146 256.829 114.731L292.438 102.975Z" fill="#A03484"/>
<path d="M292.928 195.514C283.805 224.165 266.281 249.412 242.631 267.981L219.473 238.486C237.211 224.559 250.354 205.623 257.196 184.135L292.928 195.514Z" fill="#A03484"/>
<path d="M238.911 270.809C214.694 288.632 185.68 298.765 155.632 299.894L154.224 262.421C176.76 261.574 198.521 253.974 216.684 240.607L238.911 270.809Z" fill="#A03484"/>
<path d="M150 300C119.931 300 90.5567 290.963 65.6875 274.062L86.7656 243.047C105.418 255.722 127.449 262.5 150 262.5V300Z" fill="#A03484"/>
<path d="M62.6187 271.92C38.1789 254.404 19.5675 229.947 9.19938 201.722L44.3995 188.792C52.1756 209.96 66.1342 228.303 84.4641 241.44L62.6187 271.92Z" fill="#A03484"/>
<path d="M7.65398 197.303C-1.82835 168.769 -2.51611 138.043 5.67992 109.113L41.7599 119.335C35.6129 141.033 36.1287 164.077 43.2405 185.478L7.65398 197.303Z" fill="#E8D7D8"/>
<path d="M6.95863 104.843C16.0107 76.1691 33.4715 50.8777 57.0753 32.2502L80.3065 61.6877C62.6036 75.6583 49.508 94.6268 42.719 116.132L6.95863 104.843Z" fill="#E8D7D8"/>
<path d="M60.9964 29.2591C85.1998 11.4177 114.207 1.26209 144.253 0.110121L145.69 37.5826C123.155 38.4466 101.4 46.0632 83.2473 59.4443L60.9964 29.2591Z" fill="#E8D7D8"/>
<path d="M92.983 172.149L111.072 136.354V136.055H90V128.513H120.618V136.162L102.507 172.149H92.983Z" fill="white"/>
<path d="M143.113 173.108C139.448 173.094 136.294 172.192 133.652 170.402C131.025 168.612 129 166.02 127.58 162.625C126.174 159.23 125.478 155.146 125.492 150.374C125.492 145.615 126.195 141.56 127.601 138.207C129.022 134.855 131.046 132.305 133.674 130.558C136.316 128.797 139.462 127.916 143.113 127.916C146.763 127.916 149.902 128.797 152.53 130.558C155.172 132.32 157.203 134.876 158.624 138.229C160.044 141.567 160.748 145.615 160.733 150.374C160.733 155.161 160.023 159.251 158.603 162.646C157.196 166.041 155.179 168.634 152.551 170.423C149.924 172.213 146.777 173.108 143.113 173.108ZM143.113 165.459C145.613 165.459 147.608 164.202 149.1 161.688C150.591 159.173 151.33 155.402 151.316 150.374C151.316 147.064 150.975 144.308 150.293 142.107C149.625 139.905 148.674 138.25 147.438 137.142C146.216 136.034 144.775 135.48 143.113 135.48C140.627 135.48 138.638 136.723 137.147 139.209C135.655 141.695 134.902 145.416 134.888 150.374C134.888 153.726 135.222 156.524 135.89 158.768C136.571 160.999 137.53 162.675 138.766 163.797C140.002 164.905 141.451 165.459 143.113 165.459Z" fill="white"/>
<path d="M191.197 163.967V161.666C191.197 159.919 191.566 158.314 192.305 156.851C193.058 155.374 194.144 154.195 195.565 153.314C196.999 152.419 198.746 151.972 200.806 151.972C202.894 151.972 204.648 152.412 206.069 153.293C207.504 154.173 208.583 155.352 209.308 156.83C210.046 158.293 210.415 159.905 210.415 161.666V163.967C210.415 165.714 210.046 167.327 209.308 168.804C208.569 170.267 207.482 171.439 206.048 172.32C204.613 173.214 202.866 173.662 200.806 173.662C198.718 173.662 196.964 173.214 195.543 172.32C194.123 171.439 193.043 170.267 192.305 168.804C191.566 167.327 191.197 165.714 191.197 163.967ZM197.397 161.666V163.967C197.397 164.976 197.638 165.928 198.121 166.822C198.619 167.717 199.513 168.165 200.806 168.165C202.099 168.165 202.979 167.724 203.448 166.844C203.931 165.963 204.173 165.004 204.173 163.967V161.666C204.173 160.629 203.945 159.663 203.491 158.768C203.036 157.874 202.141 157.426 200.806 157.426C199.528 157.426 198.64 157.874 198.143 158.768C197.646 159.663 197.397 160.629 197.397 161.666ZM168.803 138.996V136.695C168.803 134.933 169.18 133.321 169.933 131.858C170.685 130.381 171.772 129.202 173.192 128.321C174.627 127.44 176.36 127 178.391 127C180.494 127 182.255 127.44 183.675 128.321C185.096 129.202 186.175 130.381 186.914 131.858C187.653 133.321 188.022 134.933 188.022 136.695V138.996C188.022 140.757 187.646 142.369 186.893 143.832C186.154 145.295 185.067 146.467 183.633 147.348C182.212 148.214 180.465 148.648 178.391 148.648C176.317 148.648 174.563 148.207 173.129 147.327C171.708 146.432 170.629 145.26 169.89 143.811C169.165 142.348 168.803 140.743 168.803 138.996ZM175.046 136.695V138.996C175.046 140.033 175.288 140.991 175.771 141.872C176.268 142.753 177.141 143.193 178.391 143.193C179.698 143.193 180.586 142.753 181.055 141.872C181.538 140.991 181.779 140.033 181.779 138.996V136.695C181.779 135.658 181.552 134.692 181.097 133.797C180.643 132.902 179.741 132.455 178.391 132.455C177.127 132.455 176.254 132.909 175.771 133.818C175.288 134.727 175.046 135.686 175.046 136.695ZM171.616 172.149L201.616 128.513H207.198L177.198 172.149H171.616Z" fill="white"/>
</svg>
