<svg width="300" height="300" viewBox="0 0 300 300" fill="none" xmlns="http://www.w3.org/2000/svg">
<path d="M150 0C180.069 3.58565e-07 209.443 9.03683 234.313 25.9379L213.234 56.9535C194.583 44.2776 172.551 37.5 150 37.5V0Z" fill="#A03484"/>
<path d="M238.182 28.6581C262.506 46.335 280.956 70.9141 291.138 99.2063L255.854 111.905C248.217 90.6856 234.38 72.2512 216.137 58.9936L238.182 28.6581Z" fill="#A03484"/>
<path d="M292.438 102.975C301.865 131.528 302.492 162.255 294.24 191.169L258.18 180.877C264.369 159.191 263.899 136.146 256.829 114.731L292.438 102.975Z" fill="#A03484"/>
<path d="M292.928 195.514C283.805 224.165 266.281 249.412 242.631 267.981L219.473 238.486C237.211 224.559 250.354 205.623 257.196 184.135L292.928 195.514Z" fill="#A03484"/>
<path d="M238.911 270.809C214.694 288.632 185.68 298.765 155.632 299.894L154.224 262.421C176.76 261.574 198.521 253.974 216.684 240.607L238.911 270.809Z" fill="#A03484"/>
<path d="M150 300C119.931 300 90.5567 290.963 65.6875 274.062L86.7656 243.047C105.418 255.722 127.449 262.5 150 262.5V300Z" fill="#A03484"/>
<path d="M62.6187 271.92C38.1789 254.404 19.5675 229.947 9.19938 201.722L44.3995 188.792C52.1756 209.96 66.1342 228.303 84.4641 241.44L62.6187 271.92Z" fill="#A03484"/>
<path d="M7.65398 197.303C-1.82835 168.769 -2.51611 138.043 5.67992 109.113L41.7599 119.335C35.6129 141.033 36.1287 164.077 43.2405 185.478L7.65398 197.303Z" fill="#A03484"/>
<path d="M6.95863 104.843C16.0107 76.1691 33.4715 50.8777 57.0753 32.2502L80.3065 61.6877C62.6036 75.6583 49.508 94.6268 42.719 116.132L6.95863 104.843Z" fill="#E8D7D8"/>
<path d="M60.9964 29.2591C85.1998 11.4177 114.207 1.26209 144.253 0.110121L145.69 37.5826C123.155 38.4466 101.4 46.0632 83.2473 59.4443L60.9964 29.2591Z" fill="#E8D7D8"/>
<path d="M104.918 172.746C101.636 172.746 98.7173 172.213 96.1605 171.148C93.6179 170.068 91.6222 168.598 90.1733 166.737C88.7244 164.876 88 162.767 88 160.409C88 158.591 88.4119 156.922 89.2358 155.402C90.0739 153.868 91.2102 152.597 92.6449 151.588C94.0795 150.565 95.6847 149.912 97.4602 149.628V149.33C95.1307 148.861 93.2415 147.732 91.7926 145.942C90.3437 144.138 89.6193 142.043 89.6193 139.656C89.6193 137.398 90.2798 135.388 91.6009 133.626C92.9219 131.851 94.733 130.459 97.0341 129.45C99.3494 128.428 101.977 127.916 104.918 127.916C107.858 127.916 110.479 128.428 112.78 129.45C115.095 130.473 116.913 131.872 118.234 133.648C119.555 135.409 120.223 137.412 120.237 139.656C120.223 142.057 119.484 144.152 118.021 145.942C116.558 147.732 114.683 148.861 112.396 149.33V149.628C114.143 149.912 115.727 150.565 117.148 151.588C118.582 152.597 119.719 153.868 120.557 155.402C121.409 156.922 121.842 158.591 121.857 160.409C121.842 162.767 121.111 164.876 119.662 166.737C118.213 168.598 116.21 170.068 113.653 171.148C111.111 172.213 108.199 172.746 104.918 172.746ZM104.918 165.97C106.381 165.97 107.659 165.707 108.753 165.182C109.847 164.642 110.699 163.903 111.31 162.966C111.935 162.014 112.247 160.92 112.247 159.685C112.247 158.42 111.928 157.305 111.288 156.339C110.649 155.359 109.783 154.592 108.689 154.038C107.595 153.47 106.338 153.186 104.918 153.186C103.511 153.186 102.254 153.47 101.146 154.038C100.038 154.592 99.1648 155.359 98.5256 156.339C97.9006 157.305 97.5881 158.42 97.5881 159.685C97.5881 160.92 97.8935 162.014 98.5043 162.966C99.1151 163.903 99.9744 164.642 101.082 165.182C102.19 165.707 103.469 165.97 104.918 165.97ZM104.918 146.474C106.139 146.474 107.226 146.226 108.178 145.729C109.129 145.232 109.875 144.543 110.415 143.662C110.955 142.781 111.224 141.766 111.224 140.615C111.224 139.479 110.955 138.484 110.415 137.632C109.875 136.766 109.136 136.091 108.199 135.608C107.261 135.111 106.168 134.862 104.918 134.862C103.682 134.862 102.588 135.111 101.636 135.608C100.685 136.091 99.9389 136.766 99.3991 137.632C98.8736 138.484 98.6108 139.479 98.6108 140.615C98.6108 141.766 98.8807 142.781 99.4205 143.662C99.9602 144.543 100.706 145.232 101.658 145.729C102.609 146.226 103.696 146.474 104.918 146.474Z" fill="white"/>
<path d="M145.417 173.108C141.752 173.094 138.598 172.192 135.956 170.402C133.328 168.612 131.304 166.02 129.884 162.625C128.478 159.23 127.782 155.146 127.796 150.374C127.796 145.615 128.499 141.56 129.905 138.207C131.326 134.855 133.35 132.305 135.978 130.558C138.62 128.797 141.766 127.916 145.417 127.916C149.067 127.916 152.206 128.797 154.834 130.558C157.476 132.32 159.507 134.876 160.928 138.229C162.348 141.567 163.051 145.615 163.037 150.374C163.037 155.161 162.327 159.251 160.907 162.646C159.5 166.041 157.483 168.634 154.855 170.423C152.228 172.213 149.081 173.108 145.417 173.108ZM145.417 165.459C147.917 165.459 149.912 164.202 151.404 161.688C152.895 159.173 153.634 155.402 153.62 150.374C153.62 147.064 153.279 144.308 152.597 142.107C151.929 139.905 150.978 138.25 149.742 137.142C148.52 136.034 147.078 135.48 145.417 135.48C142.931 135.48 140.942 136.723 139.451 139.209C137.959 141.695 137.206 145.416 137.192 150.374C137.192 153.726 137.526 156.524 138.194 158.768C138.875 160.999 139.834 162.675 141.07 163.797C142.306 164.905 143.755 165.459 145.417 165.459Z" fill="white"/>
<path d="M193.501 163.967V161.666C193.501 159.919 193.87 158.314 194.609 156.851C195.362 155.374 196.448 154.195 197.869 153.314C199.303 152.419 201.05 151.972 203.11 151.972C205.198 151.972 206.952 152.412 208.373 153.293C209.808 154.173 210.887 155.352 211.612 156.83C212.35 158.293 212.719 159.905 212.719 161.666V163.967C212.719 165.714 212.35 167.327 211.612 168.804C210.873 170.267 209.786 171.439 208.352 172.32C206.917 173.214 205.17 173.662 203.11 173.662C201.022 173.662 199.268 173.214 197.847 172.32C196.427 171.439 195.347 170.267 194.609 168.804C193.87 167.327 193.501 165.714 193.501 163.967ZM199.701 161.666V163.967C199.701 164.976 199.942 165.928 200.425 166.822C200.923 167.717 201.817 168.165 203.11 168.165C204.403 168.165 205.283 167.724 205.752 166.844C206.235 165.963 206.477 165.004 206.477 163.967V161.666C206.477 160.629 206.249 159.663 205.795 158.768C205.34 157.874 204.445 157.426 203.11 157.426C201.832 157.426 200.944 157.874 200.447 158.768C199.95 159.663 199.701 160.629 199.701 161.666ZM171.107 138.996V136.695C171.107 134.933 171.484 133.321 172.237 131.858C172.989 130.381 174.076 129.202 175.496 128.321C176.931 127.44 178.664 127 180.695 127C182.798 127 184.559 127.44 185.979 128.321C187.4 129.202 188.479 130.381 189.218 131.858C189.957 133.321 190.326 134.933 190.326 136.695V138.996C190.326 140.757 189.95 142.369 189.197 143.832C188.458 145.295 187.371 146.467 185.937 147.348C184.516 148.214 182.769 148.648 180.695 148.648C178.621 148.648 176.867 148.207 175.433 147.327C174.012 146.432 172.933 145.26 172.194 143.811C171.469 142.348 171.107 140.743 171.107 138.996ZM177.35 136.695V138.996C177.35 140.033 177.592 140.991 178.075 141.872C178.572 142.753 179.445 143.193 180.695 143.193C182.002 143.193 182.89 142.753 183.359 141.872C183.842 140.991 184.083 140.033 184.083 138.996V136.695C184.083 135.658 183.856 134.692 183.401 133.797C182.947 132.902 182.045 132.455 180.695 132.455C179.431 132.455 178.558 132.909 178.075 133.818C177.592 134.727 177.35 135.686 177.35 136.695ZM173.92 172.149L203.92 128.513H209.502L179.502 172.149H173.92Z" fill="white"/>
</svg>
