<svg width="300" height="300" viewBox="0 0 300 300" fill="none" xmlns="http://www.w3.org/2000/svg">
<path d="M150 0C180.069 3.58565e-07 209.443 9.03683 234.313 25.9379L213.234 56.9535C194.583 44.2776 172.551 37.5 150 37.5V0Z" fill="#A03484"/>
<path d="M238.182 28.6581C262.506 46.335 280.956 70.9141 291.138 99.2063L255.854 111.905C248.217 90.6856 234.38 72.2512 216.137 58.9936L238.182 28.6581Z" fill="#A03484"/>
<path d="M292.438 102.975C301.865 131.528 302.492 162.255 294.24 191.169L258.18 180.877C264.369 159.191 263.899 136.146 256.829 114.731L292.438 102.975Z" fill="#A03484"/>
<path d="M292.928 195.514C283.805 224.165 266.281 249.412 242.631 267.981L219.473 238.486C237.211 224.559 250.354 205.623 257.196 184.135L292.928 195.514Z" fill="#A03484"/>
<path d="M238.911 270.809C214.694 288.632 185.68 298.765 155.632 299.894L154.224 262.421C176.76 261.574 198.521 253.974 216.684 240.607L238.911 270.809Z" fill="#A03484"/>
<path d="M150 300C119.931 300 90.5567 290.963 65.6875 274.062L86.7656 243.047C105.418 255.722 127.449 262.5 150 262.5V300Z" fill="#A03484"/>
<path d="M62.6187 271.92C38.1789 254.404 19.5675 229.947 9.19938 201.722L44.3995 188.792C52.1756 209.96 66.1342 228.303 84.4641 241.44L62.6187 271.92Z" fill="#A03484"/>
<path d="M7.65398 197.303C-1.82835 168.769 -2.51611 138.043 5.67992 109.113L41.7599 119.335C35.6129 141.033 36.1287 164.077 43.2405 185.478L7.65398 197.303Z" fill="#A03484"/>
<path d="M6.95863 104.843C16.0107 76.1691 33.4715 50.8777 57.0753 32.2502L80.3065 61.6877C62.6036 75.6583 49.508 94.6268 42.719 116.132L6.95863 104.843Z" fill="#A03484"/>
<path d="M60.9964 29.2591C85.1998 11.4177 114.207 1.26209 144.253 0.110121L145.69 37.5826C123.155 38.4466 101.4 46.0632 83.2473 59.4443L60.9964 29.2591Z" fill="#E8D7D8"/>
<path d="M104.3 127.916C106.544 127.916 108.703 128.293 110.777 129.045C112.865 129.798 114.726 130.999 116.36 132.646C118.007 134.294 119.307 136.482 120.259 139.209C121.225 141.922 121.715 145.253 121.729 149.202C121.729 152.909 121.31 156.219 120.472 159.131C119.648 162.028 118.462 164.493 116.914 166.524C115.365 168.555 113.497 170.104 111.31 171.169C109.122 172.22 106.679 172.746 103.98 172.746C101.068 172.746 98.4974 172.185 96.2673 171.062C94.0372 169.926 92.2403 168.385 90.8766 166.439C89.5272 164.479 88.7104 162.277 88.4264 159.834H97.5244C97.8795 161.425 98.6252 162.661 99.7616 163.541C100.898 164.408 102.304 164.841 103.98 164.841C106.821 164.841 108.98 163.605 110.458 161.134C111.935 158.648 112.681 155.246 112.695 150.928H112.397C111.743 152.206 110.862 153.307 109.754 154.23C108.647 155.139 107.375 155.842 105.941 156.339C104.52 156.837 103.007 157.085 101.402 157.085C98.8312 157.085 96.5372 156.482 94.5201 155.274C92.5031 154.067 90.9122 152.405 89.7474 150.288C88.5826 148.172 88.0002 145.757 88.0002 143.044C87.986 140.118 88.6607 137.511 90.0244 135.224C91.388 132.937 93.2914 131.148 95.7346 129.855C98.192 128.548 101.047 127.902 104.3 127.916ZM104.364 135.161C102.929 135.161 101.651 135.501 100.529 136.183C99.4207 136.865 98.54 137.781 97.8866 138.932C97.2474 140.082 96.9349 141.368 96.9491 142.788C96.9491 144.223 97.2616 145.516 97.8866 146.666C98.5258 147.803 99.3923 148.712 100.486 149.393C101.594 150.061 102.858 150.395 104.279 150.395C105.344 150.395 106.331 150.196 107.24 149.798C108.149 149.401 108.938 148.854 109.605 148.158C110.287 147.447 110.82 146.631 111.203 145.707C111.587 144.784 111.779 143.804 111.779 142.767C111.764 141.389 111.438 140.125 110.799 138.974C110.159 137.824 109.279 136.901 108.156 136.205C107.034 135.509 105.77 135.161 104.364 135.161Z" fill="white"/>
<path d="M145.23 173.108C141.566 173.094 138.412 172.192 135.77 170.402C133.142 168.612 131.118 166.02 129.698 162.625C128.291 159.23 127.595 155.146 127.61 150.374C127.61 145.615 128.313 141.56 129.719 138.207C131.139 134.855 133.164 132.305 135.791 130.558C138.433 128.797 141.58 127.916 145.23 127.916C148.881 127.916 152.02 128.797 154.648 130.558C157.29 132.32 159.321 134.876 160.742 138.229C162.162 141.567 162.865 145.615 162.851 150.374C162.851 155.161 162.141 159.251 160.72 162.646C159.314 166.041 157.297 168.634 154.669 170.423C152.041 172.213 148.895 173.108 145.23 173.108ZM145.23 165.459C147.73 165.459 149.726 164.202 151.218 161.688C152.709 159.173 153.448 155.402 153.433 150.374C153.433 147.064 153.093 144.308 152.411 142.107C151.743 139.905 150.791 138.25 149.556 137.142C148.334 136.034 146.892 135.48 145.23 135.48C142.745 135.48 140.756 136.723 139.264 139.209C137.773 141.695 137.02 145.416 137.006 150.374C137.006 153.726 137.34 156.524 138.007 158.768C138.689 160.999 139.648 162.675 140.884 163.797C142.12 164.905 143.568 165.459 145.23 165.459Z" fill="white"/>
<path d="M193.314 163.967V161.666C193.314 159.919 193.684 158.314 194.422 156.851C195.175 155.374 196.262 154.195 197.682 153.314C199.117 152.419 200.864 151.972 202.924 151.972C205.012 151.972 206.766 152.412 208.187 153.293C209.621 154.173 210.701 155.352 211.425 156.83C212.164 158.293 212.533 159.905 212.533 161.666V163.967C212.533 165.714 212.164 167.327 211.425 168.804C210.687 170.267 209.6 171.439 208.165 172.32C206.731 173.214 204.984 173.662 202.924 173.662C200.836 173.662 199.082 173.214 197.661 172.32C196.241 171.439 195.161 170.267 194.422 168.804C193.684 167.327 193.314 165.714 193.314 163.967ZM199.515 161.666V163.967C199.515 164.976 199.756 165.928 200.239 166.822C200.736 167.717 201.631 168.165 202.924 168.165C204.216 168.165 205.097 167.724 205.566 166.844C206.049 165.963 206.29 165.004 206.29 163.967V161.666C206.29 160.629 206.063 159.663 205.609 158.768C205.154 157.874 204.259 157.426 202.924 157.426C201.645 157.426 200.758 157.874 200.261 158.768C199.763 159.663 199.515 160.629 199.515 161.666ZM170.921 138.996V136.695C170.921 134.933 171.297 133.321 172.05 131.858C172.803 130.381 173.89 129.202 175.31 128.321C176.745 127.44 178.478 127 180.509 127C182.611 127 184.373 127.44 185.793 128.321C187.214 129.202 188.293 130.381 189.032 131.858C189.77 133.321 190.14 134.933 190.14 136.695V138.996C190.14 140.757 189.763 142.369 189.011 143.832C188.272 145.295 187.185 146.467 185.751 147.348C184.33 148.214 182.583 148.648 180.509 148.648C178.435 148.648 176.681 148.207 175.246 147.327C173.826 146.432 172.746 145.26 172.008 143.811C171.283 142.348 170.921 140.743 170.921 138.996ZM177.164 136.695V138.996C177.164 140.033 177.405 140.991 177.888 141.872C178.386 142.753 179.259 143.193 180.509 143.193C181.816 143.193 182.704 142.753 183.172 141.872C183.655 140.991 183.897 140.033 183.897 138.996V136.695C183.897 135.658 183.67 134.692 183.215 133.797C182.761 132.902 181.859 132.455 180.509 132.455C179.245 132.455 178.371 132.909 177.888 133.818C177.405 134.727 177.164 135.686 177.164 136.695ZM173.734 172.149L203.734 128.513H209.316L179.316 172.149H173.734Z" fill="white"/>
</svg>
