<svg width="25" height="24" viewBox="0 0 25 24" fill="none" xmlns="http://www.w3.org/2000/svg">
<path d="M12.5 21C17.4706 21 21.5 16.9706 21.5 12C21.5 7.02944 17.4706 3 12.5 3M12.5 21C7.52944 21 3.5 16.9706 3.5 12C3.5 7.02944 7.52944 3 12.5 3M12.5 21C10.3254 21 8.5625 16.9706 8.5625 12C8.5625 7.02944 10.3254 3 12.5 3M12.5 21C14.6746 21 16.4375 16.9706 16.4375 12C16.4375 7.02944 14.6746 3 12.5 3M5.1875 16.3744C6.83632 15.4302 9.57573 14.8125 12.6764 14.8125C15.9124 14.8125 18.755 15.4854 20.375 16.5M5.1875 7.62558C6.83632 8.56975 9.57573 9.1875 12.6764 9.1875C15.9124 9.1875 18.755 8.5146 20.375 7.5" stroke="white" stroke-width="2"/>
</svg>
